<?xml version="1.0" encoding="UTF-8"?>
<!DOCTYPE svg PUBLIC "-//W3C//DTD SVG 1.1//EN" "http://www.w3.org/Graphics/SVG/1.1/DTD/svg11.dtd"><svg version="1.1" width="125mm" height="60mm" viewBox="0 0 12500 6000" preserveAspectRatio="xMidYMid" fill-rule="evenodd" xmlns="http://www.w3.org/2000/svg" xmlns:xlink="http://www.w3.org/1999/xlink"><g visibility="visible" id="Default"><desc>Master slide</desc></g><g visibility="visible" id="page1"><desc>Slide</desc><g><desc>Drawing</desc><g><g style="stroke:none;fill:rgb(0,0,128)"><path d="M 995,995 L 1198,1603 793,1603 995,995 Z"/><path d="M 960,1995 L 960,1481 1030,1481 1030,1995 960,1995 Z"/></g><g/></g></g><g><desc>Drawing</desc><g><g style="stroke:none;fill:rgb(0,255,0)"><path d="M 2495,4796 L 2315,4256 2675,4256 2495,4796 Z"/><path d="M 2515,4196 L 2515,4364 2475,4364 2475,4196 2515,4196 Z"/></g><g/></g></g><g><desc>Drawing</desc><g><g style="stroke:none;fill:rgb(0,0,128)"><path d="M 3995,996 L 4198,1604 3793,1604 3995,996 Z"/><path d="M 3960,1996 L 3960,1482 4030,1482 4030,1996 3960,1996 Z"/></g><g/></g></g><g><desc>Drawing</desc><g><g style="stroke:none;fill:rgb(0,0,128)"><path d="M 6995,996 L 7198,1604 6793,1604 6995,996 Z"/><path d="M 6960,1996 L 6960,1482 7030,1482 7030,1996 6960,1996 Z"/></g><g/></g></g><g><desc>Drawing</desc><g><g style="stroke:none;fill:rgb(0,0,128)"><path d="M 9995,996 L 10198,1604 9793,1604 9995,996 Z"/><path d="M 9960,1996 L 9960,1482 10030,1482 10030,1996 9960,1996 Z"/></g><g/></g></g><g><desc>Drawing</desc><g><g style="stroke:none;fill:rgb(0,0,128)"><path d="M 995,2566 L 1198,3174 793,3174 995,2566 Z"/><path d="M 960,3566 L 960,3052 1030,3052 1030,3566 960,3566 Z"/></g><g/></g></g><g><desc>Drawing</desc><g><g style="stroke:none;fill:rgb(0,0,128)"><path d="M 3995,2567 L 4198,3175 3793,3175 3995,2567 Z"/><path d="M 3960,3567 L 3960,3053 4030,3053 4030,3567 3960,3567 Z"/></g><g/></g></g><g><desc>Drawing</desc><g><g style="stroke:none;fill:rgb(0,0,128)"><path d="M 6995,2567 L 7198,3175 6793,3175 6995,2567 Z"/><path d="M 6960,3567 L 6960,3053 7030,3053 7030,3567 6960,3567 Z"/></g><g/></g></g><g><desc>Drawing</desc><g><g style="stroke:none;fill:rgb(0,0,128)"><path d="M 9995,2567 L 10198,3175 9793,3175 9995,2567 Z"/><path d="M 9960,3567 L 9960,3053 10030,3053 10030,3567 9960,3567 Z"/></g><g/></g></g><g><desc>Drawing</desc><g><g style="stroke:none;fill:rgb(0,0,128)"><path d="M 995,4066 L 1198,4674 793,4674 995,4066 Z"/><path d="M 960,5066 L 960,4552 1030,4552 1030,5066 960,5066 Z"/></g><g/></g></g><g><desc>Drawing</desc><g><g style="stroke:none;fill:rgb(0,0,128)"><path d="M 3995,4067 L 4198,4675 3793,4675 3995,4067 Z"/><path d="M 3960,5067 L 3960,4553 4030,4553 4030,5067 3960,5067 Z"/></g><g/></g></g><g><desc>Drawing</desc><g><g style="stroke:none;fill:rgb(0,0,128)"><path d="M 6995,4067 L 7198,4675 6793,4675 6995,4067 Z"/><path d="M 6960,5067 L 6960,4553 7030,4553 7030,5067 6960,5067 Z"/></g><g/></g></g><g><desc>Drawing</desc><g><g style="stroke:none;fill:rgb(0,0,128)"><path d="M 9995,4067 L 10198,4675 9793,4675 9995,4067 Z"/><path d="M 9960,5067 L 9960,4553 10030,4553 10030,5067 9960,5067 Z"/></g><g/></g></g><g><desc>Drawing</desc><g><g style="stroke:none;fill:rgb(0,255,0)"><path d="M 5495,4796 L 5315,4256 5675,4256 5495,4796 Z"/><path d="M 5515,4196 L 5515,4364 5475,4364 5475,4196 5515,4196 Z"/></g><g/></g></g><g><desc>Drawing</desc><g><g style="stroke:none;fill:rgb(0,255,0)"><path d="M 8495,4796 L 8315,4256 8675,4256 8495,4796 Z"/><path d="M 8515,4196 L 8515,4364 8475,4364 8475,4196 8515,4196 Z"/></g><g/></g></g><g><desc>Drawing</desc><g><g style="stroke:none;fill:rgb(0,255,0)"><path d="M 11495,4796 L 11315,4256 11675,4256 11495,4796 Z"/><path d="M 11515,4196 L 11515,4364 11475,4364 11475,4196 11515,4196 Z"/></g><g/></g></g><g><desc>Drawing</desc><g><g style="stroke:none;fill:rgb(0,255,0)"><path d="M 2495,3296 L 2315,2756 2675,2756 2495,3296 Z"/><path d="M 2515,2696 L 2515,2864 2475,2864 2475,2696 2515,2696 Z"/></g><g/></g></g><g><desc>Drawing</desc><g><g style="stroke:none;fill:rgb(0,255,0)"><path d="M 5495,3296 L 5315,2756 5675,2756 5495,3296 Z"/><path d="M 5515,2696 L 5515,2864 5475,2864 5475,2696 5515,2696 Z"/></g><g/></g></g><g><desc>Drawing</desc><g><g style="stroke:none;fill:rgb(0,255,0)"><path d="M 8495,3296 L 8315,2756 8675,2756 8495,3296 Z"/><path d="M 8515,2696 L 8515,2864 8475,2864 8475,2696 8515,2696 Z"/></g><g/></g></g><g><desc>Drawing</desc><g><g style="stroke:none;fill:rgb(0,255,0)"><path d="M 11495,3296 L 11315,2756 11675,2756 11495,3296 Z"/><path d="M 11515,2696 L 11515,2864 11475,2864 11475,2696 11515,2696 Z"/></g><g/></g></g><g><desc>Drawing</desc><g><g style="stroke:none;fill:rgb(0,255,0)"><path d="M 2495,1796 L 2315,1256 2675,1256 2495,1796 Z"/><path d="M 2515,1196 L 2515,1364 2475,1364 2475,1196 2515,1196 Z"/></g><g/></g></g><g><desc>Drawing</desc><g><g style="stroke:none;fill:rgb(0,255,0)"><path d="M 5495,1796 L 5315,1256 5675,1256 5495,1796 Z"/><path d="M 5515,1196 L 5515,1364 5475,1364 5475,1196 5515,1196 Z"/></g><g/></g></g><g><desc>Drawing</desc><g><g style="stroke:none;fill:rgb(0,255,0)"><path d="M 8495,1796 L 8315,1256 8675,1256 8495,1796 Z"/><path d="M 8515,1196 L 8515,1364 8475,1364 8475,1196 8515,1196 Z"/></g><g/></g></g><g><desc>Drawing</desc><g><g style="stroke:none;fill:rgb(0,255,0)"><path d="M 11495,1796 L 11315,1256 11675,1256 11495,1796 Z"/><path d="M 11515,1196 L 11515,1364 11475,1364 11475,1196 11515,1196 Z"/></g><g/></g></g></g></svg>