<svg id="Ebene_1" data-name="Ebene 1" xmlns="http://www.w3.org/2000/svg" viewBox="0 0 586.43 579.62"><path d="M129.66,319.27h54.89a111.29,111.29,0,0,1-2.5-145.59H43.85V500.52H267.53V433H129.66Z" transform="translate(-13.57 -8.62)" fill="#a7e8ad"/><path d="M405.4,319.27H350.51A111.29,111.29,0,0,0,353,173.68h138.2V500.52H267.53V433H405.4Z" transform="translate(-13.57 -8.62)" fill="#ff6969"/><path d="M171,18.3" transform="translate(-13.57 -8.62)" fill="#ccc"/><path d="M335.7,188.31V167.67a103.39,103.39,0,0,0-140,0v20.64h34.41V299.64H195.7V320a103.39,103.39,0,0,0,140,0V299.64H301.29V188.31Z" transform="translate(-13.57 -8.62)" fill="#ccc"/><path d="M265.7,347.25a103.08,103.08,0,0,0,70-27.3V299.64H301.29V188.31H335.7V167.67a103.66,103.66,0,0,0-33.06-20.48c11.8,8.87,24.7,19.35,25.16,22.8a37,37,0,0,1,0,10.72h-40v126h40.34V316S311.3,338.14,265.7,347.25Z" transform="translate(-13.57 -8.62)" fill="#a5a5a5"/><line x1="213.92" y1="190.34" x2="291.93" y2="189.99" fill="none" stroke="#f0f04d" stroke-linecap="round" stroke-miterlimit="10" stroke-width="2.89"/><line x1="213.92" y1="182.99" x2="291.93" y2="182.65" fill="none" stroke="#f0f04d" stroke-linecap="round" stroke-miterlimit="10" stroke-width="2.89"/><line x1="213.92" y1="197.68" x2="291.93" y2="197.34" fill="none" stroke="#f0f04d" stroke-linecap="round" stroke-miterlimit="10" stroke-width="2.89"/><line x1="213.92" y1="205.02" x2="291.93" y2="204.68" fill="none" stroke="#f0f04d" stroke-linecap="round" stroke-miterlimit="10" stroke-width="2.89"/><line x1="213.92" y1="212.36" x2="291.93" y2="212.02" fill="none" stroke="#f0f04d" stroke-linecap="round" stroke-miterlimit="10" stroke-width="2.89"/><line x1="213.92" y1="219.7" x2="291.93" y2="219.36" fill="none" stroke="#f0f04d" stroke-linecap="round" stroke-miterlimit="10" stroke-width="2.89"/><line x1="252.13" y1="231.15" x2="291.93" y2="226.7" fill="none" stroke="#f0f04d" stroke-linecap="round" stroke-miterlimit="10" stroke-width="2.89"/><line x1="291.93" y1="280.28" x2="213.92" y2="280.62" fill="none" stroke="#f0f04d" stroke-linecap="round" stroke-miterlimit="10" stroke-width="2.89"/><line x1="291.93" y1="288.37" x2="213.92" y2="288.71" fill="none" stroke="#f0f04d" stroke-linecap="round" stroke-miterlimit="10" stroke-width="2.89"/><line x1="291.93" y1="272.94" x2="213.92" y2="273.28" fill="none" stroke="#f0f04d" stroke-linecap="round" stroke-miterlimit="10" stroke-width="2.89"/><line x1="291.93" y1="265.6" x2="213.92" y2="265.94" fill="none" stroke="#f0f04d" stroke-linecap="round" stroke-miterlimit="10" stroke-width="2.89"/><line x1="291.93" y1="258.26" x2="213.92" y2="258.6" fill="none" stroke="#f0f04d" stroke-linecap="round" stroke-miterlimit="10" stroke-width="2.89"/><line x1="291.93" y1="250.91" x2="213.92" y2="251.26" fill="none" stroke="#f0f04d" stroke-linecap="round" stroke-miterlimit="10" stroke-width="2.89"/><line x1="253.72" y1="238.47" x2="213.92" y2="243.91" fill="none" stroke="#f0f04d" stroke-linecap="round" stroke-miterlimit="10" stroke-width="2.89"/><rect x="246.67" y="245.11" width="9.92" height="47.09" fill="#6299bf"/><rect x="246.67" y="181.86" width="9.92" height="47.09" fill="#6299bf"/><circle cx="252.13" cy="235.19" r="20.35" fill="#f0f04d"/><polyline points="251.63 205.4 251.63 105.58 352.48 105.58 388.45 69.61" fill="none" stroke="#6299bf" stroke-miterlimit="10" stroke-width="4.34"/><polyline points="251.63 276.7 251.63 357.83 517.17 357.83 517.17 298.02" fill="none" stroke="#6299bf" stroke-miterlimit="10" stroke-width="4.34"/><polyline points="438.11 108.18 518.13 108.18 518.13 205.4" fill="none" stroke="#6299bf" stroke-miterlimit="10" stroke-width="4.34"/><circle cx="518.13" cy="220.08" r="13.98" fill="none" stroke="#6299bf" stroke-miterlimit="10" stroke-width="4.34"/><circle cx="518.13" cy="284.04" r="13.98" fill="none" stroke="#6299bf" stroke-miterlimit="10" stroke-width="4.34"/><rect x="547.7" y="278.99" width="38.73" height="10.09" fill="#ccc"/><polygon points="586.43 214.31 572.11 214.31 572.11 199.99 562.02 199.99 562.02 214.31 547.7 214.31 547.7 224.41 562.02 224.41 562.02 238.72 572.11 238.72 572.11 224.41 586.43 224.41 586.43 214.31" fill="#ccc"/><path d="M237.18,581.57A5.21,5.21,0,0,0,237,580a2.9,2.9,0,0,0-.73-1.23,5.71,5.71,0,0,0-1.44-1,17.79,17.79,0,0,0-2.36-1,18.57,18.57,0,0,1-2.8-1.22,9,9,0,0,1-2.14-1.56,6.29,6.29,0,0,1-1.37-2,6.62,6.62,0,0,1-.48-2.6,7.11,7.11,0,0,1,.51-2.71,6.39,6.39,0,0,1,1.44-2.16,6.62,6.62,0,0,1,2.27-1.44,8.26,8.26,0,0,1,3-.51,7.77,7.77,0,0,1,3.22.63,7.2,7.2,0,0,1,2.36,1.69,7,7,0,0,1,1.44,2.42,8.56,8.56,0,0,1,.48,2.84h-3.17a7,7,0,0,0-.25-1.94,4,4,0,0,0-.78-1.55,3.46,3.46,0,0,0-1.35-1,4.78,4.78,0,0,0-2-.36,4.73,4.73,0,0,0-1.81.31,3.38,3.38,0,0,0-1.24.85,3.45,3.45,0,0,0-.73,1.28,5.61,5.61,0,0,0-.23,1.62,3.47,3.47,0,0,0,1.14,2.65,9.93,9.93,0,0,0,3.51,1.91,18.17,18.17,0,0,1,3.13,1.33,8.39,8.39,0,0,1,2.14,1.66,6,6,0,0,1,1.22,2.08,8.14,8.14,0,0,1,.38,2.61,7.2,7.2,0,0,1-.51,2.77,6.12,6.12,0,0,1-1.47,2.12,6.72,6.72,0,0,1-2.32,1.35,9.36,9.36,0,0,1-3.06.47,9.15,9.15,0,0,1-2.91-.48,7.6,7.6,0,0,1-2.56-1.44,7.28,7.28,0,0,1-1.83-2.38,7.49,7.49,0,0,1-.69-3.3h3.16a5.83,5.83,0,0,0,.38,2.21,4.09,4.09,0,0,0,2.58,2.41,6,6,0,0,0,1.87.28,4.17,4.17,0,0,0,3.13-1.07A4,4,0,0,0,237.18,581.57Z" transform="translate(-13.57 -8.62)" fill="#f6f6f6"/><path d="M248.05,564.79v4.5h2.8v2.46h-2.8v11.54a4,4,0,0,0,.14,1.16,1.74,1.74,0,0,0,.36.68,1.16,1.16,0,0,0,.51.32,2.27,2.27,0,0,0,.59.07,3.51,3.51,0,0,0,.69-.07l.53-.13,0,2.58c-.21.06-.48.14-.82.22a5.8,5.8,0,0,1-1.3.12,4,4,0,0,1-1.41-.25,2.81,2.81,0,0,1-1.18-.83,4.47,4.47,0,0,1-.8-1.54,7.6,7.6,0,0,1-.31-2.35V571.75h-2.83v-2.46H245v-4.5Z" transform="translate(-13.57 -8.62)" fill="#f6f6f6"/><path d="M264,587.9a4.42,4.42,0,0,1-.25-.89c-.06-.36-.11-.74-.14-1.14a7.1,7.1,0,0,1-.75.91,5,5,0,0,1-.95.76,5.27,5.27,0,0,1-1.13.51,4.26,4.26,0,0,1-1.3.19,6.7,6.7,0,0,1-2.21-.34,4.5,4.5,0,0,1-1.69-1,4.61,4.61,0,0,1-1.09-1.69,6.7,6.7,0,0,1-.37-2.35,6.43,6.43,0,0,1,.46-2.47,5.3,5.3,0,0,1,1.38-2,6.4,6.4,0,0,1,2.28-1.3,9.76,9.76,0,0,1,3.2-.47h2.12v-2a3.19,3.19,0,0,0-.74-2.37,3.14,3.14,0,0,0-2.26-.71,3.56,3.56,0,0,0-1.31.23,2.91,2.91,0,0,0-1,.63,2.45,2.45,0,0,0-.6.92,3,3,0,0,0-.21,1.11h-3a4.89,4.89,0,0,1,.43-2,5.58,5.58,0,0,1,1.26-1.77,6.27,6.27,0,0,1,2-1.26,6.78,6.78,0,0,1,2.61-.48,8.32,8.32,0,0,1,2.36.31,4.63,4.63,0,0,1,1.86,1,4.5,4.5,0,0,1,1.21,1.77,7.18,7.18,0,0,1,.43,2.65v9.17c0,.31,0,.63,0,1s.06.68.11,1a9.06,9.06,0,0,0,.19,1,7.46,7.46,0,0,0,.25.83v.28ZM260,585.47a3.7,3.7,0,0,0,1.21-.19A4.34,4.34,0,0,0,263,584.1a3.51,3.51,0,0,0,.56-.8v-4.43H262a7.59,7.59,0,0,0-2,.24,4.48,4.48,0,0,0-1.51.7,3.15,3.15,0,0,0-1,1.12,3.44,3.44,0,0,0-.33,1.53,5.21,5.21,0,0,0,.17,1.42,2.2,2.2,0,0,0,.52.93,2.09,2.09,0,0,0,.87.51A4.42,4.42,0,0,0,260,585.47Z" transform="translate(-13.57 -8.62)" fill="#f6f6f6"/><path d="M275.32,564.79v4.5h2.81v2.46h-2.81v11.54a4,4,0,0,0,.14,1.16,1.74,1.74,0,0,0,.36.68,1.16,1.16,0,0,0,.51.32,2.32,2.32,0,0,0,.59.07,3.51,3.51,0,0,0,.69-.07l.53-.13,0,2.58c-.21.06-.48.14-.82.22a5.8,5.8,0,0,1-1.3.12,4,4,0,0,1-1.41-.25,2.78,2.78,0,0,1-1.17-.83,4.31,4.31,0,0,1-.81-1.54,8,8,0,0,1-.3-2.35V571.75h-2.84v-2.46h2.84v-4.5Z" transform="translate(-13.57 -8.62)" fill="#f6f6f6"/><path d="M280.76,577.73a11.64,11.64,0,0,1,.56-3.82,7.79,7.79,0,0,1,1.53-2.74,6.32,6.32,0,0,1,2.28-1.67,7.06,7.06,0,0,1,2.8-.55,7.3,7.3,0,0,1,2.84.55,6.36,6.36,0,0,1,2.29,1.67,7.79,7.79,0,0,1,1.53,2.74,11.92,11.92,0,0,1,.56,3.82v1.76a11.94,11.94,0,0,1-.56,3.81,7.88,7.88,0,0,1-1.53,2.74,6.36,6.36,0,0,1-2.28,1.65,7.13,7.13,0,0,1-2.82.55,7.21,7.21,0,0,1-2.83-.55,6.36,6.36,0,0,1-2.28-1.65,7.88,7.88,0,0,1-1.53-2.74,11.67,11.67,0,0,1-.56-3.81Zm3,1.76a10.31,10.31,0,0,0,.32,2.7,5.63,5.63,0,0,0,.88,1.91,3.49,3.49,0,0,0,3,1.54q4.16,0,4.15-6.15v-1.76a10.2,10.2,0,0,0-.32-2.68,6,6,0,0,0-.88-1.93,3.72,3.72,0,0,0-1.32-1.16,3.51,3.51,0,0,0-1.66-.4,3.36,3.36,0,0,0-1.63.4,3.61,3.61,0,0,0-1.31,1.16,6,6,0,0,0-.87,1.93,10.2,10.2,0,0,0-.32,2.68Z" transform="translate(-13.57 -8.62)" fill="#f6f6f6"/><path d="M306.76,572.14l-.67-.09c-.21,0-.44,0-.71,0a3,3,0,0,0-2,.69,4.36,4.36,0,0,0-1.22,1.88V587.9h-3.05V569.29h3l.05,1.89a4.73,4.73,0,0,1,1.42-1.63,3.46,3.46,0,0,1,2-.6l.32,0,.35.06.32.08a.93.93,0,0,1,.21.08Z" transform="translate(-13.57 -8.62)" fill="#f6f6f6"/><path d="M212.46,23.53h-4.4V33.66h-3.17v-25h7a7.49,7.49,0,0,1,5.57,1.92,7.68,7.68,0,0,1,1.89,5.62,7.86,7.86,0,0,1-1,4.05,6.43,6.43,0,0,1-2.9,2.6l4.85,10.64v.21h-3.39Zm-4.4-2.7h3.82a4.46,4.46,0,0,0,1.89-.37,3.88,3.88,0,0,0,1.35-1,4.26,4.26,0,0,0,.81-1.48,5.75,5.75,0,0,0,.28-1.83,7.49,7.49,0,0,0-.24-2,4,4,0,0,0-.76-1.52,3.33,3.33,0,0,0-1.33-1,5.26,5.26,0,0,0-2-.34h-3.85Z" transform="translate(-13.57 -8.62)" fill="#f6f6f6"/><path d="M222.52,23.5a12,12,0,0,1,.56-3.83,7.88,7.88,0,0,1,1.53-2.74,6.38,6.38,0,0,1,2.28-1.66,7.07,7.07,0,0,1,2.8-.56,7.27,7.27,0,0,1,2.84.56,6.25,6.25,0,0,1,2.29,1.66,7.88,7.88,0,0,1,1.53,2.74,11.71,11.71,0,0,1,.56,3.83v1.75a11.58,11.58,0,0,1-.56,3.81,7.79,7.79,0,0,1-1.53,2.74,6,6,0,0,1-2.28,1.65,7.5,7.5,0,0,1-5.64,0,6.08,6.08,0,0,1-2.29-1.65,7.79,7.79,0,0,1-1.53-2.74,11.85,11.85,0,0,1-.56-3.81Zm3,1.75a10.31,10.31,0,0,0,.32,2.7,5.89,5.89,0,0,0,.88,1.92A3.75,3.75,0,0,0,228.07,31a3.59,3.59,0,0,0,1.66.39q4.14,0,4.14-6.16V23.5a10.15,10.15,0,0,0-.32-2.68,5.83,5.83,0,0,0-.88-1.93,3.66,3.66,0,0,0-1.32-1.17,3.6,3.6,0,0,0-1.66-.4,3.51,3.51,0,0,0-1.63.4,3.63,3.63,0,0,0-1.31,1.17,6,6,0,0,0-.87,1.93,10.15,10.15,0,0,0-.32,2.68Z" transform="translate(-13.57 -8.62)" fill="#f6f6f6"/><path d="M244.82,10.55v4.51h2.81v2.45h-2.81V29.05a4,4,0,0,0,.14,1.16,1.67,1.67,0,0,0,.36.68,1.08,1.08,0,0,0,.51.32,2.33,2.33,0,0,0,.59.08,3.57,3.57,0,0,0,.69-.08,3.66,3.66,0,0,0,.53-.13l0,2.58c-.21.07-.48.14-.82.22a5.8,5.8,0,0,1-1.3.12,4.18,4.18,0,0,1-1.41-.24,2.89,2.89,0,0,1-1.17-.84,4.23,4.23,0,0,1-.81-1.54,7.88,7.88,0,0,1-.3-2.34V17.51H239V15.06h2.84V10.55Z" transform="translate(-13.57 -8.62)" fill="#f6f6f6"/><path d="M250.26,23.5a11.71,11.71,0,0,1,.56-3.83,7.88,7.88,0,0,1,1.53-2.74,6.26,6.26,0,0,1,2.27-1.66,7.16,7.16,0,0,1,2.81-.56,7.3,7.3,0,0,1,2.84.56,6.33,6.33,0,0,1,2.29,1.66,7.88,7.88,0,0,1,1.53,2.74,12,12,0,0,1,.56,3.83v1.75a11.85,11.85,0,0,1-.56,3.81,7.79,7.79,0,0,1-1.53,2.74,6.13,6.13,0,0,1-2.28,1.65,7.13,7.13,0,0,1-2.82.55,7.21,7.21,0,0,1-2.83-.55,6,6,0,0,1-2.28-1.65,7.79,7.79,0,0,1-1.53-2.74,11.58,11.58,0,0,1-.56-3.81Zm3,1.75a10.31,10.31,0,0,0,.32,2.7,5.69,5.69,0,0,0,.88,1.92A3.75,3.75,0,0,0,255.81,31a3.58,3.58,0,0,0,1.65.39q4.16,0,4.15-6.16V23.5a10.15,10.15,0,0,0-.32-2.68,6,6,0,0,0-.88-1.93,3.59,3.59,0,0,0-3-1.57,3.55,3.55,0,0,0-1.64.4,3.6,3.6,0,0,0-1.3,1.17,6,6,0,0,0-.87,1.93,10.15,10.15,0,0,0-.32,2.68Z" transform="translate(-13.57 -8.62)" fill="#f6f6f6"/><path d="M276.26,17.91a6.43,6.43,0,0,0-.67-.1l-.71,0a3,3,0,0,0-2,.69,4.43,4.43,0,0,0-1.23,1.87V33.66h-3V15.06h3l.05,1.89A4.76,4.76,0,0,1,273,15.31a3.46,3.46,0,0,1,2-.6l.31,0a2.25,2.25,0,0,1,.36.06l.31.07.22.08Z" transform="translate(-13.57 -8.62)" fill="#f6f6f6"/><path d="M19.17,92.82l-2.45,3v8.57H13.57v-25h3.15V91.41l2.06-2.74,6.74-9.35H29.3l-8.13,11,8.77,14H26.17Z" transform="translate(-13.57 -8.62)" fill="#f6f6f6"/><path d="M31.23,94.19a11.92,11.92,0,0,1,.56-3.82,7.79,7.79,0,0,1,1.53-2.74A6.27,6.27,0,0,1,35.6,86a6.9,6.9,0,0,1,2.8-.56,7.13,7.13,0,0,1,2.84.56,6.14,6.14,0,0,1,2.29,1.66,7.79,7.79,0,0,1,1.53,2.74,11.64,11.64,0,0,1,.56,3.82V96a11.67,11.67,0,0,1-.56,3.81,7.88,7.88,0,0,1-1.53,2.74,6.19,6.19,0,0,1-2.28,1.65,7.5,7.5,0,0,1-5.64,0,6.31,6.31,0,0,1-2.29-1.65,7.88,7.88,0,0,1-1.53-2.74A11.94,11.94,0,0,1,31.23,96Zm3,1.76a10.31,10.31,0,0,0,.32,2.7,5.89,5.89,0,0,0,.88,1.92,3.75,3.75,0,0,0,1.31,1.15,3.57,3.57,0,0,0,1.65.38q4.16,0,4.15-6.15V94.19a10.2,10.2,0,0,0-.32-2.68,5.69,5.69,0,0,0-.88-1.92,3.66,3.66,0,0,0-1.32-1.17A3.48,3.48,0,0,0,38.4,88a3.39,3.39,0,0,0-1.63.4,3.63,3.63,0,0,0-1.31,1.17,5.88,5.88,0,0,0-.87,1.92,10.2,10.2,0,0,0-.32,2.68Z" transform="translate(-13.57 -8.62)" fill="#f6f6f6"/><path d="M52.41,85.75l.07,1.72A5.75,5.75,0,0,1,54.4,86,5.82,5.82,0,0,1,57,85.41a5.18,5.18,0,0,1,2.55.63,4.3,4.3,0,0,1,1.8,2.07,6.17,6.17,0,0,1,2-2,5.32,5.32,0,0,1,2.88-.74,6.2,6.2,0,0,1,2.23.38A4,4,0,0,1,70.09,87a5.76,5.76,0,0,1,1,2.09,11.68,11.68,0,0,1,.35,3v12.23h-3V92.11a7.1,7.1,0,0,0-.22-1.94,3.09,3.09,0,0,0-.64-1.24,2.13,2.13,0,0,0-1-.64,4.39,4.39,0,0,0-1.3-.18A2.72,2.72,0,0,0,64,88.4a2.79,2.79,0,0,0-1,.81,4.32,4.32,0,0,0-.66,1.2A6.27,6.27,0,0,0,62,91.89v12.47H59V92.13a7.09,7.09,0,0,0-.21-1.85A3.22,3.22,0,0,0,58.14,89a2.36,2.36,0,0,0-1-.71,3.58,3.58,0,0,0-1.3-.22,3.21,3.21,0,0,0-2.05.62,4,4,0,0,0-1.2,1.68v14h-3V85.75Z" transform="translate(-13.57 -8.62)" fill="#f6f6f6"/><path d="M78.91,85.75,79,87.47A5.75,5.75,0,0,1,80.9,86a5.82,5.82,0,0,1,2.57-.54A5.18,5.18,0,0,1,86,86a4.3,4.3,0,0,1,1.8,2.07,6.23,6.23,0,0,1,2-2,5.37,5.37,0,0,1,2.88-.74,6.22,6.22,0,0,1,2.24.38A4.05,4.05,0,0,1,96.59,87a5.59,5.59,0,0,1,1,2.09,11.24,11.24,0,0,1,.36,3v12.23h-3V92.11a7.1,7.1,0,0,0-.22-1.94,3.09,3.09,0,0,0-.64-1.24,2.13,2.13,0,0,0-1-.64,4.39,4.39,0,0,0-1.3-.18,2.67,2.67,0,0,0-1.29.29,2.7,2.7,0,0,0-1,.81,4.32,4.32,0,0,0-.66,1.2,6.27,6.27,0,0,0-.32,1.48v12.47H85.48V92.13a7.09,7.09,0,0,0-.21-1.85A3.22,3.22,0,0,0,84.64,89a2.42,2.42,0,0,0-1-.71,3.58,3.58,0,0,0-1.3-.22,3.21,3.21,0,0,0-2,.62,4,4,0,0,0-1.2,1.68v14h-3V85.75Z" transform="translate(-13.57 -8.62)" fill="#f6f6f6"/><path d="M112,102.72a4.9,4.9,0,0,1-1.81,1.47,6.14,6.14,0,0,1-2.61.51,5.44,5.44,0,0,1-2.09-.39,3.92,3.92,0,0,1-1.62-1.22,5.91,5.91,0,0,1-1-2.15,11.64,11.64,0,0,1-.37-3.17v-12h3V97.81a7.58,7.58,0,0,0,.23,2.07,3.69,3.69,0,0,0,.6,1.29,2,2,0,0,0,.84.65,2.65,2.65,0,0,0,.94.18,4,4,0,0,0,2.42-.67,4.27,4.27,0,0,0,1.4-1.8V85.75h3v18.61H112.1Z" transform="translate(-13.57 -8.62)" fill="#f6f6f6"/><path d="M123.55,81.25v4.5h2.81v2.46h-2.81V99.75a4,4,0,0,0,.14,1.16,1.74,1.74,0,0,0,.36.68,1.08,1.08,0,0,0,.51.32,2.32,2.32,0,0,0,.59.07,3.51,3.51,0,0,0,.69-.07c.25,0,.43-.1.53-.13l0,2.58c-.21.07-.48.14-.82.22a5.71,5.71,0,0,1-1.29.12,4,4,0,0,1-1.42-.25,2.84,2.84,0,0,1-1.17-.83,4.23,4.23,0,0,1-.81-1.54,8,8,0,0,1-.3-2.35V88.21h-2.84V85.75h2.84v-4.5Z" transform="translate(-13.57 -8.62)" fill="#f6f6f6"/><path d="M139.55,104.36a3.41,3.41,0,0,1-.25-.89c-.07-.36-.11-.74-.15-1.14a7.1,7.1,0,0,1-.75.91,5,5,0,0,1-.94.76,4.89,4.89,0,0,1-1.14.51,4.21,4.21,0,0,1-1.3.19,6.7,6.7,0,0,1-2.21-.34,4.69,4.69,0,0,1-1.69-1,4.59,4.59,0,0,1-1.08-1.7,6.69,6.69,0,0,1-.38-2.35,6.43,6.43,0,0,1,.46-2.47,5.3,5.3,0,0,1,1.38-2,6.6,6.6,0,0,1,2.29-1.3,9.65,9.65,0,0,1,3.19-.47h2.12v-2a3.19,3.19,0,0,0-.74-2.37,3.15,3.15,0,0,0-2.25-.71,3.61,3.61,0,0,0-1.32.23,3,3,0,0,0-1,.63,2.82,2.82,0,0,0-.6.92,3,3,0,0,0-.21,1.11h-3a4.78,4.78,0,0,1,.44-2,5.66,5.66,0,0,1,1.25-1.77,6.38,6.38,0,0,1,2-1.26,6.82,6.82,0,0,1,2.61-.48,8.44,8.44,0,0,1,2.37.31,4.79,4.79,0,0,1,1.85,1,4.49,4.49,0,0,1,1.22,1.78,7.3,7.3,0,0,1,.43,2.64v9.17c0,.31,0,.64,0,1s.06.68.11,1,.12.65.19,1,.16.58.25.83v.28Zm-4.06-2.43a3.68,3.68,0,0,0,1.2-.19,4.45,4.45,0,0,0,1.85-1.17,3.64,3.64,0,0,0,.56-.8V95.33h-1.6a7.64,7.64,0,0,0-2,.24,4.48,4.48,0,0,0-1.51.7,3,3,0,0,0-1,1.12,3.31,3.31,0,0,0-.34,1.53,5.15,5.15,0,0,0,.17,1.42,2.2,2.2,0,0,0,.52.93,2,2,0,0,0,.87.51A4.5,4.5,0,0,0,135.49,101.93Z" transform="translate(-13.57 -8.62)" fill="#f6f6f6"/><path d="M150.83,81.25v4.5h2.8v2.46h-2.8V99.75a4.07,4.07,0,0,0,.13,1.16,1.89,1.89,0,0,0,.37.68,1,1,0,0,0,.5.32,2.35,2.35,0,0,0,.6.07,3.49,3.49,0,0,0,.68-.07c.26,0,.43-.1.54-.13l0,2.58c-.2.07-.48.14-.81.22a5.87,5.87,0,0,1-1.3.12,3.88,3.88,0,0,1-1.41-.25,2.81,2.81,0,0,1-1.18-.83,4.23,4.23,0,0,1-.81-1.54,8,8,0,0,1-.3-2.35V88.21H145V85.75h2.84v-4.5Z" transform="translate(-13.57 -8.62)" fill="#f6f6f6"/><path d="M156.26,94.19a11.92,11.92,0,0,1,.56-3.82,7.79,7.79,0,0,1,1.53-2.74A6.27,6.27,0,0,1,160.63,86a6.93,6.93,0,0,1,2.8-.56,7.09,7.09,0,0,1,2.84.56,6.25,6.25,0,0,1,2.3,1.66,8.12,8.12,0,0,1,1.53,2.74,11.93,11.93,0,0,1,.55,3.82V96a12,12,0,0,1-.55,3.81,8.22,8.22,0,0,1-1.53,2.74,6.36,6.36,0,0,1-2.28,1.65,7.13,7.13,0,0,1-2.82.55,7.21,7.21,0,0,1-2.83-.55,6.31,6.31,0,0,1-2.29-1.65,7.88,7.88,0,0,1-1.53-2.74,11.94,11.94,0,0,1-.56-3.81ZM159.31,96a10.33,10.33,0,0,0,.31,2.7,6.1,6.1,0,0,0,.88,1.92,3.69,3.69,0,0,0,1.32,1.15,3.52,3.52,0,0,0,1.65.38q4.14,0,4.14-6.15V94.19a10.2,10.2,0,0,0-.32-2.68,5.88,5.88,0,0,0-.87-1.92,3.77,3.77,0,0,0-1.33-1.17,3.48,3.48,0,0,0-1.66-.4,3.39,3.39,0,0,0-1.63.4,3.63,3.63,0,0,0-1.31,1.17,6.09,6.09,0,0,0-.87,1.92,10.23,10.23,0,0,0-.31,2.68Z" transform="translate(-13.57 -8.62)" fill="#f6f6f6"/><path d="M182.26,88.61a6.06,6.06,0,0,0-.67-.1c-.21,0-.44,0-.7,0a3,3,0,0,0-2,.68,4.38,4.38,0,0,0-1.23,1.88v13.31h-3V85.75h2.95l.05,1.89A4.93,4.93,0,0,1,179,86a3.46,3.46,0,0,1,2-.6l.32,0,.35.06.32.08.21.08Z" transform="translate(-13.57 -8.62)" fill="#f6f6f6"/><line x1="254.59" y1="542.06" x2="254.59" y2="512.93" fill="none" stroke="#f6f6f6" stroke-linecap="round" stroke-miterlimit="10" stroke-width="3.52"/><polygon points="263.38 515.5 254.59 500.29 245.81 515.5 263.38 515.5" fill="#f6f6f6"/><line x1="226.04" y1="111.72" x2="226.04" y2="43.44" fill="none" stroke="#f6f6f6" stroke-linecap="round" stroke-miterlimit="10" stroke-width="3.52"/><polygon points="234.82 109.15 226.03 124.35 217.25 109.15 234.82 109.15" fill="#f6f6f6"/><path d="M255.59,133" transform="translate(-13.57 -8.62)" fill="none"/><polyline points="239.5 235.19 83.38 235.19 83.38 108.18" fill="none" stroke="#f6f6f6" stroke-linecap="round" stroke-miterlimit="10" stroke-width="3.52"/><polygon points="236.93 226.41 252.13 235.19 236.93 243.97 236.93 226.41" fill="#f6f6f6"/></svg>