<svg xmlns="http://www.w3.org/2000/svg" xmlns:xlink="http://www.w3.org/1999/xlink" width="685" height="233" viewBox="0 0 685 233">
  <defs>
    <polygon id="sdw_positiv@3x-a" points="0 .05 685 .05 685 191.178 0 191.178"/>
  </defs>
  <g fill="none" fill-rule="evenodd">
    <mask id="sdw_positiv@3x-b" fill="#fff">
      <use xlink:href="#sdw_positiv@3x-a"/>
    </mask>
    <path fill="#2B2B2A" d="M92.475,113.408938 C92.475,88.9257182 80.3235684,80.4907409 60.9635363,68.7630667 L51.0778739,62.7976121 C39.7504915,56.0075212 29.8633654,49.6297485 29.8633654,37.6973773 C29.8633654,27.2051955 36.0430021,20.2089455 46.9576282,20.2089455 C60.7571581,20.2089455 63.2293056,29.2609379 63.2293056,40.1654379 L63.2293056,43.8689909 L90.6205235,43.8689909 L90.6205235,38.1082333 C90.6205235,9.92292273 75.3807372,0.0462939394 48.1944338,0.0462939394 C21.4194231,0.0462939394 2.05939103,10.9507939 2.05939103,39.9607409 C2.05939103,63.2084682 14.8284936,72.4666197 31.3050855,82.7541045 L42.6324679,89.7488924 C55.4015705,97.5668545 64.6710256,102.915294 64.6710256,115.672302 C64.6710256,127.604673 58.0800962,134.394764 46.1335791,134.394764 C29.6584509,134.394764 28.0103526,121.637756 28.0103526,108.677514 L28.0103526,106.825006 L0,106.825006 L0,108.471355 C0,141.800408 11.9450534,154.555953 45.9286645,154.555953 C73.3213462,154.555953 92.475,144.063771 92.475,113.408938 Z M180.007169,99.0070439 C180.007169,68.7630667 179.18312,45.5153394 151.996816,45.5153394 C142.111154,45.5153394 132.224028,49.6297485 126.045855,58.8879 L125.839476,47.9834 L100.918942,47.9834 C101.125321,49.4235894 101.536613,70.8217333 101.536613,72.2604606 L101.536613,191.177703 L127.076282,191.177703 L127.076282,142.623582 C132.224028,150.8524 140.050299,153.734241 149.937425,153.734241 C177.328643,153.734241 180.007169,128.221688 180.007169,99.0070439 Z M154.261122,97.9777106 C154.261122,113.615097 153.232158,137.27368 141.080726,137.27368 C128.722917,137.27368 126.663526,120.403726 126.663526,101.270408 C126.663526,82.7541045 127.281197,61.9744379 141.080726,61.9744379 C153.232158,61.9744379 154.261122,78.4335364 154.261122,97.9777106 Z M262.794103,102.710597 C262.794103,72.6727788 262.794103,45.5153394 226.546186,45.5153394 C190.91594,45.5153394 186.59078,72.4666197 186.59078,100.859552 C186.59078,129.868036 188.856549,154.145097 225.104466,154.145097 C250.231378,154.145097 261.147468,142.829741 262.176432,117.317188 L237.873568,117.317188 C237.873568,126.987658 236.020556,137.479839 225.104466,137.479839 C215.218803,137.479839 211.922607,129.661877 211.922607,111.968748 L211.922607,102.710597 L262.794103,102.710597 Z M237.66719,88.5148621 L211.922607,88.5148621 C211.922607,83.5772788 212.128985,79.8722636 212.746656,75.7593167 C213.983462,67.5290364 217.278194,62.1791348 225.517222,62.1791348 C233.34203,62.1791348 236.020556,67.3228773 237.049519,74.3191273 C237.873568,79.2567106 237.66719,83.7819758 237.66719,88.5148621 Z M353.827382,151.675574 L324.992981,92.216953 L350.53265,47.9834 L322.728675,47.9834 L298.837105,93.0401273 L325.405737,151.675574 L353.827382,151.675574 Z M272.681229,151.675574 L298.219434,151.675574 L298.219434,2.92667273 L272.681229,2.92667273 L272.681229,151.675574 Z M407.169562,151.881733 L407.169562,134.394764 C404.698878,134.599461 402.433109,135.010317 400.16734,135.010317 C390.694434,135.010317 389.459092,130.278892 389.459092,120.814582 L389.459092,64.6486576 L405.729306,64.6486576 L405.729306,47.9834 L389.459092,47.9834 L389.459092,19.7980894 L363.919423,30.2902712 L363.919423,47.9834 L350.119893,47.9834 L350.119893,64.6486576 L363.919423,64.6486576 L363.919423,124.518135 C363.919423,146.531832 370.715267,152.911067 392.753825,152.911067 C397.696656,152.911067 402.433109,152.704908 407.169562,151.881733 Z M467.928184,68.9692258 L467.928184,46.1323545 L466.691378,46.1323545 C454.335032,46.1323545 446.096004,50.0406045 440.330588,61.3559606 L440.124209,47.9834 L415.614968,47.9834 C415.614968,49.2188924 416.026261,65.4718318 416.026261,66.7058621 L416.026261,151.675574 L441.564466,151.675574 L441.564466,93.6571424 C441.564466,78.2273773 446.921517,68.5583697 463.603024,68.5583697 C465.04328,68.5583697 466.486464,68.7630667 467.928184,68.9692258 Z M550.510203,151.675574 C550.09891,145.71012 549.686154,141.183392 549.686154,134.599461 L549.686154,47.9834 L524.146485,47.9834 L524.146485,115.259983 C524.146485,124.313438 521.264509,137.27368 510.142041,137.27368 C498.401902,137.27368 498.196987,126.164483 498.196987,117.317188 L498.196987,47.9834 L472.658782,47.9834 L472.658782,124.518135 C472.658782,144.063771 480.689968,153.734241 499.638707,153.734241 C510.142041,153.734241 518.587447,149.413673 524.352863,140.566377 L524.559241,151.675574 L550.510203,151.675574 Z M685,151.675574 L685,80.0798848 C685,58.0647258 678.820363,45.5153394 658.844124,45.5153394 C647.515278,45.5153394 639.895385,51.0699379 633.099541,59.9172333 C628.979295,51.4822561 623.006036,45.5153394 610.032019,45.5153394 C599.527222,45.5153394 590.465609,51.0699379 584.905107,59.7110742 L584.698729,47.9834 L559.366902,47.9834 C559.984573,52.7162864 560.189487,57.4477106 560.189487,62.1791348 L560.189487,151.675574 L585.729156,151.675574 L585.729156,85.6330212 C585.729156,75.5531576 587.788547,62.3852939 599.115929,62.3852939 C609.001592,62.3852939 609.824177,71.6434455 609.824177,79.8722636 L609.824177,151.675574 L635.36531,151.675574 L635.36531,85.6330212 C635.36531,76.5824909 637.423237,62.3852939 648.545705,62.3852939 C657.607318,62.3852939 659.461795,69.7924 659.461795,80.4907409 L659.461795,151.675574 L685,151.675574 Z" mask="url(#sdw_positiv@3x-b)"/>
    <path fill="#2B2B2A" d="M311.738613,232.365545 C311.608126,230.326946 311.477638,228.222168 311.477638,226.185007 L311.477638,186.323701 L307.784405,186.323701 L307.784405,203.323059 C306.360773,200.966513 304.47677,199.571 300.446322,199.571 C291.492541,199.571 290,208.477823 290,215.550338 C290,223.133582 290.584994,232.877713 300.446322,232.877713 C304.146886,232.877713 306.161377,231.542625 308.106958,228.553063 L308.175868,232.365545 L311.738613,232.365545 Z M307.983802,216.568919 C307.983802,222.877499 307.784405,229.760109 300.515231,229.760109 C294.731268,229.760109 293.754811,223.896079 293.754811,215.616517 C293.754811,210.522177 294.084695,202.620986 300.837784,202.620986 C307.461852,202.620986 307.983802,208.801524 307.983802,216.574673 L307.983802,216.568919 Z M340.916474,216.885427 L340.916474,212.688818 C340.916474,205.232177 338.909314,199.571 330.533196,199.571 C319.440302,199.571 319.372859,209.564021 319.372859,218.099666 C319.372859,226.25838 320.863934,233 330.141734,233 C338.132254,233 340.463433,228.425021 340.724408,222.560991 L337.031175,222.560991 C336.831779,226.704368 335.732166,230.078056 330.141734,230.078056 C324.294726,230.078056 323.195113,225.874254 323.195113,218.734121 L323.195113,216.885427 L340.916474,216.885427 Z M337.092754,213.963482 L323.256691,213.963482 C323.256691,212.559338 323.3256,211.163825 323.457554,209.75968 C323.910595,205.676727 325.725689,202.491506 330.602105,202.491506 C335.20875,202.491506 336.7702,206.122716 337.031175,210.015764 C337.092754,211.284674 337.092754,213.133368 337.092754,213.963482 Z M361.032059,203.255441 L361.032059,199.631424 C360.769618,199.571 360.448531,199.571 360.254999,199.571 C356.816876,199.571 353.824463,201.472925 352.078278,204.530105 L352.009369,200.271634 L348.448089,200.271634 C348.57711,202.182191 348.709064,204.151734 348.709064,206.129909 L348.709064,232.365545 L352.400831,232.365545 L352.400831,211.480333 C352.400831,206.824788 354.992985,203.193578 360.055602,203.193578 C360.385486,203.193578 360.708039,203.193578 361.032059,203.255441 Z M426.334401,186.323701 L422.510681,186.323701 L412.966041,228.161744 L404.006395,186.323701 L399.074265,186.323701 L389.660113,228.161744 L380.506935,186.323701 L376.353331,186.323701 L387.129537,232.365545 L392.060201,232.365545 L401.343866,190.399461 L410.304978,232.365545 L415.235642,232.365545 L426.334401,186.323701 Z M430.873603,191.849643 L435.343896,191.849643 L435.343896,187.01858 L430.873603,187.01858 L430.873603,191.849643 Z M431.257734,232.365545 L434.950967,232.365545 L434.950967,200.271634 L431.257734,200.271634 L431.257734,232.365545 Z M460.725893,223.835655 C460.725893,218.869356 457.286304,216.574673 453.780738,214.658361 L451.310275,213.26141 C448.781165,211.858704 446.766674,210.266093 446.766674,207.459243 C446.766674,204.597723 448.518724,202.553369 451.641625,202.553369 C455.340722,202.553369 456.833263,204.597723 456.833263,208.099452 L456.833263,208.861949 L460.52503,208.861949 L460.52503,208.545441 C460.52503,202.620986 457.940207,199.571 451.902599,199.571 C446.70363,199.571 443.071975,202.30304 443.071975,207.587285 C443.071975,211.730662 445.40462,213.963482 448.719587,215.744559 L451.310275,217.148704 C455.409631,219.315345 456.963751,220.840338 456.963751,224.537727 C456.963751,228.108513 454.956591,230.078056 451.310275,230.078056 C447.419111,230.078056 445.859127,227.722948 445.859127,223.579571 L445.859127,222.817074 L442.164428,222.817074 L442.164428,223.579571 C442.164428,229.315559 444.627561,233 451.317605,233 C457.4857,233 460.725893,229.88959 460.725893,223.835655 Z M485.544888,223.835655 C485.544888,218.869356 482.11263,216.574673 478.605598,214.658361 L476.136601,213.26141 C473.606025,211.858704 471.590068,210.266093 471.590068,207.459243 C471.590068,204.597723 473.34505,202.553369 476.46062,202.553369 C480.167048,202.553369 481.65959,204.597723 481.65959,208.099452 L481.65959,208.861949 L485.351356,208.861949 L485.351356,208.545441 C485.351356,202.620986 482.759202,199.571 476.720129,199.571 C471.521159,199.571 467.898301,202.30304 467.898301,207.587285 C467.898301,211.730662 470.22948,213.963482 473.537116,215.744559 L476.136601,217.148704 C480.228627,219.315345 481.788611,220.840338 481.788611,224.537727 C481.788611,228.108513 479.77412,230.078056 476.136601,230.078056 C472.238107,230.078056 470.682521,227.722948 470.682521,223.579571 L470.682521,222.817074 L466.990754,222.817074 L466.990754,223.579571 C466.990754,229.315559 469.452421,233 476.136601,233 C482.304696,233 485.544888,229.88959 485.544888,223.835655 Z M513.664188,216.885427 L513.664188,212.688818 C513.664188,205.232177 511.655562,199.571 503.285309,199.571 C492.18655,199.571 492.124972,209.564021 492.124972,218.099666 C492.124972,226.25838 493.610182,233 502.893847,233 C510.878503,233 513.209682,228.425021 513.470657,222.560991 L509.777424,222.560991 C509.585358,226.704368 508.478414,230.078056 502.893847,230.078056 C497.049771,230.078056 495.942828,225.874254 495.942828,218.734121 L495.942828,216.885427 L513.664188,216.885427 Z M509.846333,213.963482 L496.011737,213.963482 C496.011737,212.559338 496.073315,211.163825 496.202336,209.75968 C496.656843,205.676727 498.479268,202.491506 503.346887,202.491506 C507.962329,202.491506 509.516449,206.122716 509.777424,210.015764 C509.846333,211.284674 509.846333,213.133368 509.846333,213.963482 Z M542.223334,232.365545 L542.223334,209.692063 C542.223334,203.89565 540.015311,199.571 533.463085,199.571 C529.561658,199.571 526.770108,201.540543 524.824526,204.658147 L524.762948,200.271634 L521.192871,200.271634 C521.393734,202.884263 521.455312,205.616303 521.455312,208.227494 L521.455312,232.365545 L525.148545,232.365545 L525.148545,213.518932 C525.148545,208.417399 526.708529,202.749028 532.746137,202.749028 C538.660588,202.749028 538.531567,208.099452 538.531567,212.365117 L538.531567,232.365545 L542.223334,232.365545 Z M567.990928,223.835655 C567.990928,218.869356 564.55867,216.574673 561.051638,214.658361 L558.582641,213.26141 C556.0462,211.858704 554.037574,210.266093 554.037574,207.459243 C554.037574,204.597723 555.79109,202.553369 558.90666,202.553369 C562.605758,202.553369 564.10563,204.597723 564.10563,208.099452 L564.10563,208.861949 L567.797397,208.861949 L567.797397,208.545441 C567.797397,202.620986 565.205243,199.571 559.167635,199.571 C553.968665,199.571 550.344341,202.30304 550.344341,207.587285 C550.344341,211.730662 552.67552,213.963482 555.984622,215.744559 L558.582641,217.148704 C562.674667,219.315345 564.236117,220.840338 564.236117,224.537727 C564.236117,228.108513 562.221626,230.078056 558.582641,230.078056 C554.684147,230.078056 553.122696,227.722948 553.122696,223.579571 L553.122696,222.817074 L549.429463,222.817074 L549.429463,223.579571 C549.429463,229.315559 551.892596,233 558.582641,233 C564.750736,233 567.990928,229.88959 567.990928,223.835655 Z M594.425622,209.375555 C594.295134,203.12596 592.478574,199.571 585.270978,199.571 C574.826122,199.571 574.565147,208.477823 574.565147,216.379014 C574.565147,226.130338 575.342207,233 585.141957,233 C591.763092,233 594.356713,229.059475 594.356713,223.006979 L590.663479,223.006979 C590.532992,227.020876 589.694354,230.078056 584.949891,230.078056 C580.272871,230.078056 578.457777,227.466865 578.457777,216.44807 C578.457777,209.820105 578.649842,202.491506 585.141957,202.491506 C589.694354,202.491506 590.732389,205.420643 590.732389,209.375555 L594.425622,209.375555 Z M622.222369,232.365545 L622.222369,209.752487 C622.222369,203.956075 620.150698,199.571 613.467984,199.571 C609.699977,199.571 607.099026,201.352077 605.153445,204.213597 L605.153445,186.323701 L601.460212,186.323701 L601.460212,232.365545 L605.153445,232.365545 L605.153445,213.323273 C605.153445,207.775751 607.099026,202.749028 612.752503,202.749028 C618.659623,202.749028 618.535,208.031834 618.535,212.303254 L618.535,232.365545 L622.222369,232.365545 Z M649.604195,232.365545 C649.473708,228.991858 649.406265,225.678594 649.406265,222.303468 L649.406265,210.205669 C649.406265,203.255441 647.528126,199.571 639.936399,199.571 C634.351832,199.571 629.751051,202.046956 629.751051,207.782944 L629.751051,207.97141 L633.507329,207.97141 L633.507329,207.72252 C633.507329,204.084116 636.690342,202.553369 639.805911,202.553369 C645.720362,202.553369 645.720362,207.080872 645.720362,211.608375 L645.720362,212.81686 C637.660933,212.884478 628.321555,213.518932 628.321555,223.519147 C628.321555,228.869571 631.168819,232.877713 636.951316,232.877713 C641.296986,232.877713 643.573918,231.35272 646.042916,227.911414 L646.042916,232.365545 L649.604195,232.365545 Z M645.720362,219.626098 C645.720362,224.470109 643.966846,229.88959 637.791421,229.88959 C633.768304,229.88959 632.275762,226.63675 632.275762,223.133582 C632.275762,216.379014 638.959943,215.738804 644.481465,215.738804 L645.720362,215.738804 L645.720362,219.626098 Z M669.486662,203.255441 L669.486662,200.271634 L663.186613,200.271634 L663.186613,195.042058 C663.186613,190.770639 664.224648,189.245646 668.186186,189.245646 C668.640693,189.245646 669.032155,189.245646 669.486662,189.30607 L669.486662,186.128042 C668.970577,186.067618 668.255095,186 667.609989,186 C659.886308,186 659.500711,191.154764 659.500711,196.762711 L659.500711,200.271634 L654.501138,200.271634 L654.501138,203.255441 L659.500711,203.255441 L659.500711,232.365545 L663.186613,232.365545 L663.186613,203.255441 L669.486662,203.255441 Z M685,232.365545 L685,229.127093 C684.285985,229.255135 683.316859,229.383177 682.599912,229.383177 C679.938849,229.383177 678.770327,228.869571 678.770327,224.855674 L678.770327,203.255441 L685,203.255441 L685,200.271634 L678.770327,200.271634 L678.770327,192.438061 L675.077094,194.091096 L675.077094,200.271634 L670.015942,200.271634 L670.015942,203.255441 L675.077094,203.255441 L675.077094,225.111757 C675.077094,230.078056 675.917198,232.621629 681.692365,232.621629 C682.793444,232.621629 683.900387,232.493587 685,232.365545 Z"/>
  </g>
</svg>
